<svg xmlns="http://www.w3.org/2000/svg" width="170" height="auto" viewBox="0 0 250 72" fill="none">
<path d="M240.548 1.44067C244.817 1.44067 248.291 4.82758 248.291 8.98984V62.9284C248.291 67.0907 244.817 70.4776 240.548 70.4776H10.0413C5.77233 70.4776 2.29859 67.0907 2.29859 62.9284V8.98984C2.29859 4.82758 5.77233 1.44067 10.0413 1.44067H240.548ZM240.548 6.86646e-05H10.0413C4.97247 6.86646e-05 0.821045 4.04771 0.821045 8.98984V62.9284C0.821045 67.8706 4.97247 71.9182 10.0413 71.9182H240.548C245.617 71.9182 249.768 67.8706 249.768 62.9284V8.98984C249.768 4.04771 245.617 6.86646e-05 240.548 6.86646e-05Z" fill="white"/>
<path d="M56.3786 35.5708C56.3252 29.776 61.2451 26.9568 61.4701 26.8256C58.6837 22.8647 54.3649 22.3235 52.8473 22.2803C49.22 21.9082 45.7015 24.3965 43.8538 24.3965C41.9692 24.3965 39.1238 22.3163 36.0571 22.3774C32.1109 22.4368 28.4191 24.6644 26.3943 28.1237C22.2157 35.1771 25.3321 45.5423 29.3356 51.2436C31.3382 54.0358 33.6783 57.1534 36.7413 57.0438C39.7379 56.9233 40.8572 55.1811 44.4734 55.1811C48.0564 55.1811 49.1075 57.0438 52.2313 56.9736C55.4474 56.9233 57.4722 54.1688 59.4047 51.3515C61.719 48.1511 62.6484 44.9993 62.6853 44.8375C62.6097 44.8123 56.4395 42.5163 56.3786 35.5708Z" fill="white"/>
<path d="M50.4777 18.5298C52.0894 16.5646 53.1921 13.8911 52.886 11.178C50.5533 11.2787 47.636 12.7512 45.956 14.6732C44.4697 16.3669 43.142 19.1429 43.485 21.7535C46.1054 21.9441 48.7959 20.4644 50.4777 18.5298Z" fill="white"/>
<path d="M91.272 17.9958C91.272 20.112 90.6211 21.7049 89.321 22.7747C88.1168 23.7618 86.4056 24.2562 84.189 24.2562C83.0899 24.2562 82.1495 24.2095 81.3621 24.116V12.5534C82.3892 12.3915 83.4956 12.3088 84.6906 12.3088C86.802 12.3088 88.3934 12.7565 89.4667 13.6519C90.669 14.6642 91.272 16.1115 91.272 17.9958ZM89.2343 18.0479C89.2343 16.6761 88.8618 15.6243 88.1168 14.8907C87.3718 14.1589 86.2839 13.7921 84.851 13.7921C84.2425 13.7921 83.7243 13.8317 83.2946 13.9144V22.7046C83.5325 22.7406 83.9677 22.7567 84.6002 22.7567C86.0792 22.7567 87.2206 22.3558 88.0246 21.5539C88.8287 20.752 89.2343 19.5834 89.2343 18.0479Z" fill="white"/>
<path d="M102.076 19.8439C102.076 21.1474 101.695 22.2154 100.931 23.0533C100.131 23.9145 99.0705 24.3442 97.7464 24.3442C96.4703 24.3442 95.4543 23.9325 94.6964 23.1054C93.9403 22.2801 93.5623 21.2391 93.5623 19.9842C93.5623 18.6717 93.9513 17.5947 94.7332 16.7586C95.5151 15.9226 96.5662 15.5037 97.8903 15.5037C99.1663 15.5037 100.192 15.9154 100.968 16.7407C101.706 17.5425 102.076 18.5782 102.076 19.8439ZM100.072 19.9051C100.072 19.1229 99.8984 18.4523 99.5536 17.8931C99.1479 17.2171 98.5707 16.8791 97.8202 16.8791C97.0438 16.8791 96.4537 17.2171 96.048 17.8931C95.7014 18.4523 95.5299 19.1337 95.5299 19.9392C95.5299 20.7213 95.7032 21.392 96.048 21.9511C96.4666 22.6272 97.0494 22.9652 97.8017 22.9652C98.5394 22.9652 99.1184 22.6218 99.5352 21.9331C99.8929 21.3632 100.072 20.6872 100.072 19.9051Z" fill="white"/>
<path d="M116.563 15.6763L113.843 24.1518H112.073L110.946 20.4714C110.66 19.5527 110.428 18.6393 110.247 17.7331H110.212C110.044 18.6645 109.812 19.576 109.513 20.4714L108.317 24.1518H106.526L103.968 15.6763H105.954L106.937 19.7055C107.175 20.6584 107.371 21.5664 107.527 22.4258H107.562C107.706 21.7174 107.944 20.8148 108.28 19.7235L109.513 15.6781H111.088L112.27 19.6372C112.556 20.6027 112.788 21.5322 112.967 22.4276H113.021C113.152 21.5556 113.349 20.626 113.611 19.6372L114.666 15.6781H116.563V15.6763Z" fill="white"/>
<path d="M126.582 24.1518H124.649V19.2974C124.649 17.8015 124.066 17.0535 122.897 17.0535C122.324 17.0535 121.861 17.2585 121.501 17.6702C121.146 18.082 120.965 18.5674 120.965 19.123V24.15H119.032V18.0981C119.032 17.3538 119.008 16.5465 118.962 15.6727H120.661L120.751 16.9978H120.804C121.029 16.5861 121.365 16.2462 121.806 15.9747C122.329 15.6583 122.916 15.4983 123.558 15.4983C124.369 15.4983 125.044 15.7536 125.58 16.266C126.248 16.8935 126.582 17.8302 126.582 19.0744V24.1518Z" fill="white"/>
<path d="M131.911 24.1519H129.981V11.7874H131.911V24.1519Z" fill="white"/>
<path d="M143.289 19.8439C143.289 21.1474 142.907 22.2154 142.144 23.0533C141.344 23.9145 140.282 24.3442 138.959 24.3442C137.681 24.3442 136.665 23.9325 135.909 23.1054C135.153 22.2801 134.775 21.2391 134.775 19.9842C134.775 18.6717 135.164 17.5947 135.946 16.7586C136.728 15.9226 137.779 15.5037 139.101 15.5037C140.379 15.5037 141.403 15.9154 142.181 16.7407C142.918 17.5425 143.289 18.5782 143.289 19.8439ZM141.283 19.9051C141.283 19.1229 141.109 18.4523 140.765 17.8931C140.361 17.2171 139.782 16.8791 139.033 16.8791C138.255 16.8791 137.665 17.2171 137.261 17.8931C136.914 18.4523 136.743 19.1337 136.743 19.9392C136.743 20.7213 136.916 21.392 137.261 21.9511C137.68 22.6272 138.262 22.9652 139.015 22.9652C139.752 22.9652 140.329 22.6218 140.746 21.9331C141.106 21.3632 141.283 20.6872 141.283 19.9051Z" fill="white"/>
<path d="M152.642 24.1518H150.907L150.763 23.1755H150.709C150.116 23.954 149.269 24.3442 148.17 24.3442C147.35 24.3442 146.686 24.0871 146.186 23.5765C145.732 23.1126 145.505 22.5355 145.505 21.8504C145.505 20.8148 145.948 20.0255 146.839 19.4789C147.728 18.9324 148.978 18.6645 150.588 18.677V18.5188C150.588 17.4023 149.987 16.8449 148.782 16.8449C147.925 16.8449 147.169 17.0553 146.516 17.4724L146.123 16.2354C146.931 15.7482 147.929 15.5037 149.105 15.5037C151.377 15.5037 152.517 16.6723 152.517 19.0097V22.1309C152.517 22.9778 152.559 23.652 152.642 24.1518ZM150.636 21.2391V19.932C148.504 19.8961 147.438 20.466 147.438 21.6401C147.438 22.0824 147.56 22.4132 147.809 22.6343C148.058 22.8555 148.375 22.9652 148.753 22.9652C149.177 22.9652 149.573 22.8339 149.935 22.5732C150.298 22.3107 150.521 21.9781 150.604 21.57C150.625 21.4783 150.636 21.3668 150.636 21.2391Z" fill="white"/>
<path d="M163.623 24.1519H161.908L161.818 22.7908H161.765C161.217 23.8264 160.284 24.3443 158.973 24.3443C157.925 24.3443 157.053 23.9433 156.362 23.1414C155.67 22.3395 155.325 21.2985 155.325 20.0202C155.325 18.6483 155.7 17.5372 156.452 16.6886C157.18 15.8975 158.073 15.5019 159.135 15.5019C160.302 15.5019 161.119 15.8849 161.584 16.6526H161.621V11.7874H163.555V21.8685C163.555 22.6937 163.577 23.4543 163.623 24.1519ZM161.621 20.5775V19.1644C161.621 18.9198 161.602 18.7221 161.567 18.571C161.459 18.1179 161.224 17.7368 160.868 17.4293C160.509 17.1219 160.075 16.9673 159.576 16.9673C158.855 16.9673 158.29 17.2459 157.876 17.8051C157.464 18.3643 157.256 19.0781 157.256 19.9501C157.256 20.7879 157.453 21.4675 157.85 21.9907C158.268 22.5481 158.833 22.8268 159.539 22.8268C160.173 22.8268 160.68 22.5949 161.066 22.1292C161.438 21.6995 161.621 21.1817 161.621 20.5775Z" fill="white"/>
<path d="M180.152 19.8439C180.152 21.1474 179.77 22.2154 179.007 23.0533C178.206 23.9145 177.148 24.3442 175.822 24.3442C174.548 24.3442 173.532 23.9325 172.772 23.1054C172.016 22.2801 171.638 21.2391 171.638 19.9842C171.638 18.6717 172.027 17.5947 172.809 16.7586C173.591 15.9226 174.642 15.5037 175.968 15.5037C177.242 15.5037 178.269 15.9154 179.043 16.7407C179.781 17.5425 180.152 18.5782 180.152 19.8439ZM178.149 19.9051C178.149 19.1229 177.976 18.4523 177.631 17.8931C177.223 17.2171 176.648 16.8791 175.896 16.8791C175.121 16.8791 174.531 17.2171 174.123 17.8931C173.777 18.4523 173.605 19.1337 173.605 19.9392C173.605 20.7213 173.779 21.392 174.123 21.9511C174.542 22.6272 175.125 22.9652 175.877 22.9652C176.615 22.9652 177.196 22.6218 177.612 21.9331C177.968 21.3632 178.149 20.6872 178.149 19.9051Z" fill="white"/>
<path d="M190.543 24.1518H188.612V19.2974C188.612 17.8015 188.03 17.0535 186.859 17.0535C186.285 17.0535 185.822 17.2585 185.464 17.6702C185.107 18.082 184.928 18.5674 184.928 19.123V24.15H182.993V18.0981C182.993 17.3538 182.971 16.5465 182.925 15.6727H184.622L184.712 16.9978H184.766C184.992 16.5861 185.328 16.2462 185.767 15.9747C186.292 15.6583 186.877 15.4983 187.521 15.4983C188.33 15.4983 189.005 15.7536 189.542 16.266C190.211 16.8935 190.543 17.8302 190.543 19.0744V24.1518Z" fill="white"/>
<path d="M203.549 17.0876H201.421V21.2049C201.421 22.2513 201.799 22.7745 202.548 22.7745C202.895 22.7745 203.182 22.7458 203.409 22.6864L203.459 24.1158C203.077 24.2561 202.575 24.3262 201.958 24.3262C201.194 24.3262 200.601 24.0996 200.171 23.6466C199.739 23.1935 199.525 22.4311 199.525 21.3614V17.0876H198.255V15.6762H199.525V14.1228L201.419 13.5654V15.6744H203.547V17.0876H203.549Z" fill="white"/>
<path d="M213.78 24.1519H211.845V19.3334C211.845 17.8141 211.263 17.0536 210.095 17.0536C209.199 17.0536 208.587 17.4941 208.251 18.3751C208.194 18.5602 208.161 18.7868 208.161 19.0529V24.1501H206.23V11.7874H208.161V16.8953H208.198C208.806 15.9658 209.679 15.5019 210.809 15.5019C211.609 15.5019 212.271 15.7572 212.797 16.2697C213.452 16.9079 213.78 17.8572 213.78 19.1122V24.1519Z" fill="white"/>
<path d="M224.334 19.5132C224.334 19.8512 224.308 20.1353 224.262 20.3672H218.466C218.492 21.205 218.768 21.8433 219.305 22.2856C219.795 22.6812 220.428 22.8789 221.202 22.8789C222.06 22.8789 222.842 22.7459 223.546 22.478L223.849 23.7869C223.024 24.1357 222.054 24.3101 220.931 24.3101C219.585 24.3101 218.525 23.9235 217.758 23.1504C216.987 22.3773 216.605 21.3399 216.605 20.0382C216.605 18.7598 216.961 17.6954 217.678 16.8468C218.427 15.9406 219.439 15.4875 220.717 15.4875C221.968 15.4875 222.917 15.9406 223.559 16.8468C224.077 17.566 224.334 18.456 224.334 19.5132ZM222.489 19.0259C222.504 18.4668 222.377 17.9849 222.115 17.5786C221.78 17.0554 221.269 16.7929 220.577 16.7929C219.947 16.7929 219.432 17.0482 219.039 17.5606C218.718 17.9687 218.528 18.456 218.466 19.0259H222.489Z" fill="white"/>
<path d="M99.7455 56.6427H95.5577L93.2637 49.6145H85.29L83.1048 56.6427H79.0276L86.9275 32.7156H91.8069L99.7455 56.6427ZM92.5722 46.6659L90.4976 40.418C90.2782 39.7797 89.8669 38.2766 89.2602 35.9105H89.1865C88.9449 36.9282 88.5558 38.4313 88.021 40.418L85.9834 46.6659H92.5722Z" fill="white"/>
<path d="M120.061 47.804C120.061 50.7383 119.248 53.0576 117.621 54.7603C116.165 56.276 114.356 57.0329 112.196 57.0329C109.865 57.0329 108.191 56.2166 107.171 54.5841H107.097V63.6728H103.166V45.0693C103.166 43.2246 103.116 41.3314 103.02 39.3896H106.478L106.697 42.1243H106.771C108.082 40.0638 110.072 39.0354 112.742 39.0354C114.83 39.0354 116.572 39.8391 117.966 41.4483C119.364 43.0592 120.061 45.1772 120.061 47.804ZM116.056 47.9443C116.056 46.265 115.669 44.8805 114.89 43.791C114.04 42.6547 112.899 42.0865 111.468 42.0865C110.498 42.0865 109.616 42.403 108.829 43.0269C108.04 43.6561 107.523 44.4778 107.282 45.4954C107.16 45.9701 107.099 46.3585 107.099 46.6641V49.5408C107.099 50.7958 107.494 51.8548 108.283 52.7196C109.072 53.5844 110.098 54.0159 111.359 54.0159C112.84 54.0159 113.992 53.4586 114.817 52.3474C115.643 51.2345 116.056 49.7674 116.056 47.9443Z" fill="white"/>
<path d="M140.414 47.804C140.414 50.7383 139.601 53.0576 137.973 54.7603C136.518 56.276 134.709 57.0329 132.549 57.0329C130.219 57.0329 128.544 56.2166 127.526 54.5841H127.452V63.6728H123.521V45.0693C123.521 43.2246 123.471 41.3314 123.375 39.3896H126.833L127.052 42.1243H127.126C128.435 40.0638 130.425 39.0354 133.097 39.0354C135.183 39.0354 136.925 39.8391 138.323 41.4483C139.715 43.0592 140.414 45.1772 140.414 47.804ZM136.409 47.9443C136.409 46.265 136.02 44.8805 135.242 43.791C134.392 42.6547 133.254 42.0865 131.821 42.0865C130.849 42.0865 129.97 42.403 129.18 43.0269C128.391 43.6561 127.877 44.4778 127.635 45.4954C127.515 45.9701 127.452 46.3585 127.452 46.6641V49.5408C127.452 50.7958 127.847 51.8548 128.633 52.7196C129.422 53.5826 130.447 54.0159 131.712 54.0159C133.193 54.0159 134.346 53.4586 135.17 52.3474C135.996 51.2345 136.409 49.7674 136.409 47.9443Z" fill="white"/>
<path d="M163.17 49.9328C163.17 51.9681 162.445 53.624 160.99 54.9023C159.391 56.2994 157.166 56.997 154.306 56.997C151.665 56.997 149.548 56.5007 147.945 55.5065L148.856 52.3115C150.582 53.3291 152.476 53.8398 154.54 53.8398C156.021 53.8398 157.173 53.5125 158.001 52.8617C158.825 52.2108 159.237 51.337 159.237 50.2474C159.237 49.2765 158.897 48.4585 158.217 47.795C157.54 47.1316 156.41 46.5149 154.831 45.9449C150.534 44.3825 148.388 42.0937 148.388 39.0839C148.388 37.117 149.14 35.5042 150.647 34.2492C152.148 32.9925 154.151 32.365 156.655 32.365C158.888 32.365 160.743 32.7444 162.224 33.5013L161.241 36.6261C159.858 35.8926 158.294 35.5258 156.544 35.5258C155.161 35.5258 154.081 35.8584 153.306 36.5201C152.651 37.1116 152.323 37.8326 152.323 38.6866C152.323 39.6323 152.698 40.4144 153.45 41.0293C154.105 41.5975 155.294 42.2124 157.02 42.8758C159.131 43.7047 160.682 44.6738 161.68 45.7849C162.674 46.8925 163.17 48.2787 163.17 49.9328Z" fill="white"/>
<path d="M176.169 42.2662H171.835V50.6429C171.835 52.7734 172.599 53.8378 174.129 53.8378C174.832 53.8378 175.415 53.7785 175.876 53.6598L175.984 56.5707C175.21 56.853 174.19 56.995 172.927 56.995C171.374 56.995 170.161 56.533 169.285 55.6106C168.413 54.6865 167.974 53.1366 167.974 50.9593V42.2626H165.392V39.3859H167.974V36.2269L171.835 35.0906V39.3859H176.169V42.2662Z" fill="white"/>
<path d="M195.721 47.8741C195.721 50.526 194.943 52.7034 193.39 54.406C191.762 56.159 189.601 57.0328 186.907 57.0328C184.31 57.0328 182.243 56.1932 180.701 54.5139C179.16 52.8346 178.389 50.7148 178.389 48.1599C178.389 45.4864 179.182 43.2965 180.773 41.5938C182.361 39.8893 184.504 39.0371 187.198 39.0371C189.794 39.0371 191.884 39.8768 193.46 41.5578C194.969 43.1886 195.721 45.294 195.721 47.8741ZM191.642 47.9981C191.642 46.4069 191.294 45.0423 190.587 43.9042C189.763 42.5269 188.585 41.8401 187.058 41.8401C185.477 41.8401 184.277 42.5287 183.453 43.9042C182.746 45.0441 182.398 46.4303 182.398 48.07C182.398 49.6612 182.746 51.0259 183.453 52.1622C184.303 53.5394 185.49 54.2262 187.023 54.2262C188.524 54.2262 189.702 53.525 190.552 52.1262C191.277 50.9665 191.642 49.5875 191.642 47.9981Z" fill="white"/>
<path d="M208.501 42.7608C208.112 42.6906 207.697 42.6547 207.261 42.6547C205.878 42.6547 204.809 43.1635 204.056 44.1829C203.402 45.0819 203.074 46.2182 203.074 47.5901V56.6428H199.144L199.181 44.823C199.181 42.8345 199.131 41.0239 199.033 39.3914H202.458L202.601 42.6924H202.71C203.125 41.5579 203.78 40.6446 204.676 39.9595C205.552 39.3429 206.498 39.0354 207.518 39.0354C207.881 39.0354 208.209 39.0606 208.501 39.1055V42.7608Z" fill="white"/>
<path d="M226.084 47.1998C226.084 47.8866 226.037 48.4656 225.94 48.9384H214.145C214.191 50.6429 214.761 51.9464 215.856 52.8454C216.85 53.6491 218.136 54.0518 219.714 54.0518C221.46 54.0518 223.054 53.7803 224.487 53.2355L225.102 55.8965C223.428 56.6085 221.451 56.9627 219.17 56.9627C216.426 56.9627 214.272 56.1752 212.705 54.602C211.141 53.0288 210.357 50.9162 210.357 48.266C210.357 45.6643 211.086 43.4978 212.544 41.77C214.071 39.9253 216.135 39.0029 218.731 39.0029C221.282 39.0029 223.212 39.9253 224.523 41.77C225.562 43.2353 226.084 45.0476 226.084 47.1998ZM222.335 46.2055C222.36 45.0692 222.104 44.0875 221.571 43.2587C220.891 42.1925 219.845 41.6603 218.438 41.6603C217.153 41.6603 216.107 42.1799 215.309 43.2227C214.654 44.0516 214.265 45.0458 214.145 46.2037H222.335V46.2055Z" fill="white"/>
</svg>