<svg xmlns="http://www.w3.org/2000/svg" width="170" height="auto" viewBox="0 0 249 72" fill="none">
<path d="M239.778 1.44225C244.048 1.44225 247.522 4.833 247.522 9.00001V63C247.522 67.167 244.048 70.5578 239.778 70.5578H9.22222C4.95233 70.5578 1.47786 67.167 1.47786 63V9.00001C1.47786 4.833 4.95233 1.44225 9.22222 1.44225H239.778ZM239.778 6.67572e-06H9.22222C4.15231 6.67572e-06 0 4.05225 0 9.00001V63C0 67.9478 4.15231 72 9.22222 72H239.778C244.848 72 249 67.9478 249 63V9.00001C249 4.05225 244.848 6.67572e-06 239.778 6.67572e-06Z" fill="white"/>
<path d="M17.8634 13.5698C17.3216 14.1233 17.0081 14.985 17.0081 16.101V55.908C17.0081 57.024 17.3216 57.8858 17.8634 58.4393L17.9971 58.5608L40.8544 36.2633V35.7368L17.9971 13.4393L17.8634 13.5698Z" fill="white"/>
<path d="M51.2317 43.6995L43.6211 36.2632V35.7367L51.241 28.3005L51.4116 28.3972L60.4355 33.408C63.0108 34.83 63.0108 37.17 60.4355 38.601L51.4116 43.6027L51.2317 43.6995Z" fill="white"/>
<path d="M50.0283 44.9875L42.2378 37.3847L19.2468 59.824C20.1022 60.7015 21.497 60.8072 23.0833 59.9297L50.0283 44.9875Z" fill="white"/>
<path d="M50.0283 27.0127L23.0833 12.0705C21.497 11.202 20.1022 11.3077 19.2468 12.1852L42.2378 34.6155L50.0283 27.0127Z" fill="white"/>
<path d="M87.459 18.4389C87.459 19.9419 86.9979 21.1457 86.0895 22.0434C85.0451 23.1077 83.6848 23.6432 82.0179 23.6432C80.4248 23.6432 79.0645 23.0987 77.9486 22.0254C76.8304 20.9364 76.2725 19.5999 76.2725 18.0002C76.2725 16.4004 76.8304 15.0639 77.9486 13.9839C79.0645 12.9017 80.4248 12.3572 82.0179 12.3572C82.811 12.3572 83.5672 12.5169 84.2889 12.8139C85.0082 13.1132 85.5938 13.5182 86.018 14.0177L85.0543 14.9672C84.3142 14.1144 83.3067 13.6937 82.0179 13.6937C80.8559 13.6937 79.8484 14.0897 78.993 14.8884C78.1469 15.6894 77.7227 16.7267 77.7227 18.0002C77.7227 19.2737 78.1469 20.3199 78.993 21.1209C79.8484 21.9107 80.8559 22.3157 82.0179 22.3157C83.2514 22.3157 84.2889 21.9107 85.1074 21.1119C85.6469 20.5832 85.9535 19.8542 86.0342 18.9227H82.0179V17.6222H87.376C87.4406 17.9034 87.459 18.1757 87.459 18.4389Z" fill="white" stroke="white" stroke-width="0.16" stroke-miterlimit="10"/>
<path d="M95.9596 13.9297H90.9265V17.3497H95.4639V18.6502H90.9265V22.0702H95.9596V23.3955H89.5017V12.6045H95.9596V13.9297Z" fill="white" stroke="white" stroke-width="0.16" stroke-miterlimit="10"/>
<path d="M101.959 23.3955H100.534V13.9297H97.4465V12.6045H105.048V13.9297H101.959V23.3955Z" fill="white" stroke="white" stroke-width="0.16" stroke-miterlimit="10"/>
<path d="M110.549 23.3955V12.6045H111.972V23.3955H110.549Z" fill="white" stroke="white" stroke-width="0.16" stroke-miterlimit="10"/>
<path d="M118.277 23.3955H116.864V13.9297H113.765V12.6045H121.376V13.9297H118.277V23.3955Z" fill="white" stroke="white" stroke-width="0.16" stroke-miterlimit="10"/>
<path d="M135.767 22.0074C134.677 23.0987 133.326 23.6432 131.714 23.6432C130.093 23.6432 128.742 23.0987 127.652 22.0074C126.564 20.9184 126.022 19.5819 126.022 18.0002C126.022 16.4184 126.564 15.0819 127.652 13.9929C128.742 12.9017 130.093 12.3572 131.714 12.3572C133.317 12.3572 134.668 12.9017 135.758 14.0019C136.856 15.0999 137.397 16.4274 137.397 18.0002C137.397 19.5819 136.856 20.9184 135.767 22.0074ZM128.705 21.1029C129.526 21.9107 130.524 22.3157 131.714 22.3157C132.895 22.3157 133.902 21.9107 134.714 21.1029C135.532 20.2952 135.947 19.2579 135.947 18.0002C135.947 16.7424 135.532 15.7052 134.714 14.8974C133.902 14.0897 132.895 13.6847 131.714 13.6847C130.524 13.6847 129.526 14.0897 128.705 14.8974C127.887 15.7052 127.472 16.7424 127.472 18.0002C127.472 19.2579 127.887 20.2952 128.705 21.1029Z" fill="white" stroke="white" stroke-width="0.16" stroke-miterlimit="10"/>
<path d="M139.396 23.3955V12.6045H141.125L146.502 20.997H146.564L146.502 18.9225V12.6045H147.925V23.3955H146.44L140.81 14.589H140.747L140.81 16.6725V23.3955H139.396Z" fill="white" stroke="white" stroke-width="0.16" stroke-miterlimit="10"/>
<path d="M125.671 39.1546C121.339 39.1546 117.8 42.3721 117.8 46.8114C117.8 51.2146 121.339 54.4659 125.671 54.4659C130.013 54.4659 133.552 51.2146 133.552 46.8114C133.552 42.3721 130.013 39.1546 125.671 39.1546ZM125.671 51.4509C123.294 51.4509 121.249 49.5361 121.249 46.8114C121.249 44.0506 123.294 42.1696 125.671 42.1696C128.048 42.1696 130.103 44.0506 130.103 46.8114C130.103 49.5361 128.048 51.4509 125.671 51.4509ZM108.497 39.1546C104.156 39.1546 100.626 42.3721 100.626 46.8114C100.626 51.2146 104.156 54.4659 108.497 54.4659C112.836 54.4659 116.368 51.2146 116.368 46.8114C116.368 42.3721 112.836 39.1546 108.497 39.1546ZM108.497 51.4509C106.118 51.4509 104.066 49.5361 104.066 46.8114C104.066 44.0506 106.118 42.1696 108.497 42.1696C110.874 42.1696 112.919 44.0506 112.919 46.8114C112.919 49.5361 110.874 51.4509 108.497 51.4509ZM88.0607 41.5014V44.7549H96.0218C95.7889 46.5729 95.1664 47.9094 94.212 48.8409C93.05 49.9659 91.2401 51.2146 88.0607 51.2146C83.1614 51.2146 79.325 47.3559 79.325 42.5746C79.325 37.7934 83.1614 33.9346 88.0607 33.9346C90.7098 33.9346 92.6373 34.9449 94.0598 36.2544L96.4092 33.9616C94.4195 32.1076 91.7727 30.6834 88.0607 30.6834C81.3423 30.6834 75.696 36.0181 75.696 42.5746C75.696 49.1311 81.3423 54.4659 88.0607 54.4659C91.692 54.4659 94.4195 53.3048 96.5636 51.1269C98.7608 48.9826 99.4456 45.9676 99.4456 43.5331C99.4456 42.7771 99.381 42.0819 99.2657 41.5014H88.0607ZM171.628 44.0236C170.98 42.3114 168.981 39.1546 164.909 39.1546C160.875 39.1546 157.516 42.2574 157.516 46.8114C157.516 51.0999 160.84 54.4659 165.297 54.4659C168.9 54.4659 170.98 52.3216 171.835 51.0728L169.161 49.3336C168.269 50.6071 167.054 51.4509 165.297 51.4509C163.552 51.4509 162.3 50.6701 161.497 49.1311L171.99 44.8944L171.628 44.0236ZM160.93 46.5729C160.84 43.6209 163.279 42.1089 165.027 42.1089C166.397 42.1089 167.559 42.7771 167.946 43.7334L160.93 46.5729ZM152.402 54.0001H155.851V31.5001H152.402V54.0001ZM146.753 40.8601H146.638C145.863 39.9646 144.385 39.1546 142.513 39.1546C138.585 39.1546 134.993 42.5206 134.993 46.8361C134.993 51.1269 138.585 54.4659 142.513 54.4659C144.385 54.4659 145.863 53.6491 146.638 52.7266H146.753V53.8246C146.753 56.7519 145.151 58.3246 142.566 58.3246C140.459 58.3246 139.152 56.8396 138.612 55.5908L135.613 56.8126C136.477 58.8421 138.767 61.3396 142.566 61.3396C146.61 61.3396 150.023 59.0176 150.023 53.3679V39.6204H146.753V40.8601ZM142.808 51.4509C140.431 51.4509 138.442 49.5091 138.442 46.8361C138.442 44.1384 140.431 42.1696 142.808 42.1696C145.151 42.1696 146.998 44.1384 146.998 46.8361C146.998 49.5091 145.151 51.4509 142.808 51.4509ZM187.776 31.5001H179.527V54.0001H182.967V45.4749H187.776C191.596 45.4749 195.343 42.7771 195.343 38.4864C195.343 34.1979 191.587 31.5001 187.776 31.5001ZM187.866 42.3451H182.967V34.6299H187.866C190.434 34.6299 191.901 36.7111 191.901 38.4864C191.901 40.2279 190.434 42.3451 187.866 42.3451ZM209.13 39.1119C206.645 39.1119 204.06 40.1829 202.997 42.5566L206.05 43.8054C206.707 42.5566 207.915 42.1516 209.192 42.1516C210.977 42.1516 212.787 43.1979 212.814 45.0451V45.2814C212.192 44.9304 210.859 44.4106 209.22 44.4106C205.932 44.4106 202.582 46.1769 202.582 49.4731C202.582 52.4881 205.275 54.4299 208.302 54.4299C210.617 54.4299 211.894 53.4106 212.697 52.2249H212.814V53.9641H216.137V45.3331C216.137 41.3439 213.084 39.1119 209.13 39.1119ZM208.715 51.4419C207.59 51.4419 206.022 50.8974 206.022 49.5361C206.022 47.7946 207.977 47.1264 209.67 47.1264C211.184 47.1264 211.894 47.4526 212.814 47.8824C212.545 49.9659 210.707 51.4419 208.715 51.4419ZM228.241 39.6046L224.287 49.3584H224.169L220.081 39.6046H216.372L222.514 53.2351L219.009 60.8198H222.604L232.068 39.6046H228.241ZM197.233 54.0001H200.682V31.5001H197.233V54.0001Z" fill="white"/>
</svg>